<svg width="24" height="24" fill="none" xmlns="http://www.w3.org/2000/svg"><path d="M21.936 7.903a7.23 7.23 0 00-.466-2.457 5.11 5.11 0 00-2.924-2.92 7.348 7.348 0 00-2.428-.465c-1.068-.048-1.407-.06-4.12-.06-2.711 0-3.059 0-4.12.06a7.341 7.341 0 00-2.426.466 5.117 5.117 0 00-2.924 2.92 7.256 7.256 0 00-.466 2.422C2.014 8.937 2 9.275 2 11.982c0 2.708 0 3.054.062 4.114.017.83.173 1.648.466 2.425a5.11 5.11 0 002.925 2.918 7.323 7.323 0 002.427.499C8.95 21.986 9.288 22 12 22s3.06 0 4.12-.062a7.328 7.328 0 002.428-.465 5.124 5.124 0 002.925-2.919 7.292 7.292 0 00.465-2.425c.048-1.067.062-1.405.062-4.113-.002-2.708-.002-3.052-.064-4.113zm-9.944 9.2a5.129 5.129 0 01-5.134-5.126 5.129 5.129 0 015.134-5.126c1.362 0 2.668.54 3.63 1.501a5.121 5.121 0 010 7.25 5.139 5.139 0 01-3.63 1.5zm5.339-9.246a1.195 1.195 0 11.457-2.3 1.196 1.196 0 01.74 1.104c0 .661-.536 1.196-1.197 1.196z" fill="#fff"/><path d="M12.003 15.006a3.003 3.003 0 100-6.006 3.003 3.003 0 000 6.006z" fill="#fff"/></svg>