<svg width="18" height="24" fill="none" xmlns="http://www.w3.org/2000/svg"><path d="M8.55 5.35c-1.767 0-3.275.625-4.525 1.875-1.25 1.25-1.875 2.758-1.875 4.525 0 1.067.25 2.067.75 3L1.3 16.3A8.486 8.486 0 010 11.75C0 9.383.833 7.367 2.5 5.7c1.667-1.667 3.683-2.5 6.05-2.5V0l4.25 4.3-4.25 4.25v-3.2zm7.2 1.85a8.485 8.485 0 011.3 4.55c0 2.367-.833 4.383-2.5 6.05-1.667 1.667-3.667 2.5-6 2.5v3.2l-4.3-4.3 4.3-4.25v3.2c1.767 0 3.275-.625 4.525-1.875 1.25-1.25 1.875-2.758 1.875-4.525 0-1.033-.25-2.033-.75-3l1.55-1.55z" fill="#464952"/></svg>