<svg width="400" height="345" fill="none" xmlns="http://www.w3.org/2000/svg"><path d="M75.634 219.385c5.45 0 10.257 2.083 14.423 6.25 4.167 4.166 6.25 8.974 6.25 14.423 0 5.448-2.083 10.256-6.25 14.423-4.166 4.167-8.974 6.25-14.423 6.25-5.448 0-10.256-2.083-14.423-6.25-4.166-4.167-6.25-8.975-6.25-14.423 0-5.449 2.084-10.257 6.25-14.423 4.167-4.167 8.975-6.25 14.423-6.25zm0 82.692c5.45 0 10.257 1.923 14.423 5.769 4.167 3.846 6.25 8.654 6.25 14.423 0 5.77-2.083 10.577-6.25 14.423-4.166 3.847-8.974 5.77-14.423 5.77-5.448 0-10.256-1.923-14.423-5.77-4.166-3.846-6.25-8.653-6.25-14.423 0-5.769 2.084-10.577 6.25-14.423 4.167-3.846 8.975-5.769 14.423-5.769zm0-164.423c5.45 0 10.257 2.083 14.423 6.25 4.167 4.167 6.25 8.974 6.25 14.423s-2.083 10.256-6.25 14.423c-4.166 4.167-8.974 6.25-14.423 6.25-5.448 0-10.256-2.083-14.423-6.25-4.166-4.167-6.25-8.974-6.25-14.423s2.084-10.256 6.25-14.423c4.167-4.167 8.975-6.25 14.423-6.25zm-61.538 10.577c6.73 0 10.096 3.365 10.096 10.096s-3.365 10.096-10.096 10.096C7.366 168.423 4 165.058 4 158.327s3.365-10.096 10.096-10.096zm61.538-92.308c5.45 0 10.257 1.923 14.423 5.77 4.167 3.846 6.25 8.653 6.25 14.422 0 5.77-2.083 10.577-6.25 14.424-4.166 3.846-8.974 5.769-14.423 5.769-5.448 0-10.256-1.923-14.423-5.77-4.166-3.846-6.25-8.653-6.25-14.423 0-5.769 2.084-10.576 6.25-14.423 4.167-3.846 8.975-5.769 14.423-5.769zm307.693 112.5c-6.731 0-10.097-3.365-10.097-10.096s3.366-10.096 10.097-10.096c6.73 0 10.096 3.365 10.096 10.096s-3.366 10.096-10.096 10.096zm-143.27-72.115c-5.448 0-10.256-1.923-14.423-5.77-4.166-3.846-6.25-8.653-6.25-14.423 0-5.769 2.084-10.576 6.25-14.423 4.167-3.846 8.975-5.769 14.423-5.769 5.449 0 10.257 1.923 14.423 5.77 4.167 3.846 6.25 8.653 6.25 14.422 0 5.77-2.083 10.577-6.25 14.424-4.166 3.846-8.974 5.769-14.423 5.769zm0-71.154c-6.73 0-10.096-3.526-10.096-10.577S233.327 4 240.057 4c6.731 0 10.097 3.526 10.097 10.577s-3.366 10.577-10.097 10.577zM14.096 229.962c6.73 0 10.096 3.365 10.096 10.096s-3.365 10.096-10.096 10.096C7.366 250.154 4 246.789 4 240.058s3.365-10.096 10.096-10.096zm143.75 143.269c7.051 0 10.577 3.526 10.577 10.577s-3.526 10.577-10.577 10.577-10.577-3.526-10.577-10.577 3.526-10.577 10.577-10.577zm0-348.077c-7.051 0-10.577-3.526-10.577-10.577S150.795 4 157.846 4s10.577 3.526 10.577 10.577-3.526 10.577-10.577 10.577zm0 71.154c-5.769 0-10.577-1.923-14.423-5.77-3.846-3.846-5.769-8.653-5.769-14.423 0-5.769 1.923-10.576 5.769-14.423 3.846-3.846 8.654-5.769 14.423-5.769s10.577 1.923 14.423 5.77c3.846 3.846 5.769 8.653 5.769 14.422 0 5.77-1.923 10.577-5.769 14.424-3.846 3.846-8.654 5.769-14.423 5.769zm0 113.461c8.333 0 15.545 2.885 21.634 8.654 6.09 5.769 9.135 12.981 9.135 21.635 0 8.654-3.045 16.025-9.135 22.115-6.089 6.09-13.301 9.135-21.634 9.135s-15.545-3.045-21.635-9.135c-6.09-6.09-9.134-13.461-9.134-22.115 0-8.654 3.044-15.866 9.134-21.635 6.09-5.769 13.302-8.654 21.635-8.654zm163.942 9.616c5.449 0 10.256 2.083 14.423 6.25 4.167 4.166 6.25 8.974 6.25 14.423 0 5.448-2.083 10.256-6.25 14.423s-8.974 6.25-14.423 6.25-10.256-2.083-14.423-6.25-6.25-8.975-6.25-14.423c0-5.449 2.083-10.257 6.25-14.423 4.167-4.167 8.974-6.25 14.423-6.25zm0 82.692c5.449 0 10.256 1.923 14.423 5.769s6.25 8.654 6.25 14.423c0 5.77-2.083 10.577-6.25 14.423-4.167 3.847-8.974 5.77-14.423 5.77s-10.256-1.923-14.423-5.77c-4.167-3.846-6.25-8.653-6.25-14.423 0-5.769 2.083-10.577 6.25-14.423s8.974-5.769 14.423-5.769zm0-164.423c5.449 0 10.256 2.083 14.423 6.25s6.25 8.974 6.25 14.423-2.083 10.256-6.25 14.423-8.974 6.25-14.423 6.25-10.256-2.083-14.423-6.25-6.25-8.974-6.25-14.423 2.083-10.256 6.25-14.423 8.974-6.25 14.423-6.25zm0-81.73c5.449 0 10.256 1.922 14.423 5.768s6.25 8.654 6.25 14.423c0 5.77-2.083 10.577-6.25 14.424-4.167 3.846-8.974 5.769-14.423 5.769s-10.256-1.923-14.423-5.77c-4.167-3.846-6.25-8.653-6.25-14.423 0-5.769 2.083-10.576 6.25-14.423 4.167-3.846 8.974-5.769 14.423-5.769zm61.539 174.038c6.73 0 10.096 3.365 10.096 10.096s-3.366 10.096-10.096 10.096c-6.731 0-10.097-3.365-10.097-10.096s3.366-10.096 10.097-10.096zm-143.27 72.115c5.449 0 10.257 1.923 14.423 5.769 4.167 3.846 6.25 8.654 6.25 14.423 0 5.77-2.083 10.577-6.25 14.423-4.166 3.847-8.974 5.77-14.423 5.77-5.448 0-10.256-1.923-14.423-5.77-4.166-3.846-6.25-8.653-6.25-14.423 0-5.769 2.084-10.577 6.25-14.423 4.167-3.846 8.975-5.769 14.423-5.769zm0 71.154c6.731 0 10.097 3.526 10.097 10.577s-3.366 10.577-10.097 10.577c-6.73 0-10.096-3.526-10.096-10.577s3.366-10.577 10.096-10.577zm-82.211-246.154c8.333 0 15.545 3.045 21.634 9.135 6.09 6.089 9.135 13.461 9.135 22.115 0 8.654-3.045 15.865-9.135 21.635-6.089 5.769-13.301 8.653-21.634 8.653s-15.545-2.884-21.635-8.653c-6.09-5.77-9.134-12.981-9.134-21.635 0-8.654 3.044-16.026 9.134-22.115 6.09-6.09 13.302-9.135 21.635-9.135zm0 175c5.769 0 10.577 1.923 14.423 5.769s5.769 8.654 5.769 14.423c0 5.77-1.923 10.577-5.769 14.423-3.846 3.847-8.654 5.77-14.423 5.77s-10.577-1.923-14.423-5.77c-3.846-3.846-5.769-8.653-5.769-14.423 0-5.769 1.923-10.577 5.769-14.423s8.654-5.769 14.423-5.769zm82.211-92.308c8.654 0 15.866 2.885 21.635 8.654 5.769 5.769 8.654 12.981 8.654 21.635 0 8.654-2.885 16.025-8.654 22.115s-12.981 9.135-21.635 9.135c-8.653 0-16.025-3.045-22.115-9.135s-9.135-13.461-9.135-22.115c0-8.654 3.045-15.866 9.135-21.635 6.09-5.769 13.462-8.654 22.115-8.654zm0-82.692c8.654 0 15.866 3.045 21.635 9.135 5.769 6.089 8.654 13.461 8.654 22.115 0 8.654-2.885 15.865-8.654 21.635-5.769 5.769-12.981 8.653-21.635 8.653-8.653 0-16.025-2.884-22.115-8.653-6.09-5.77-9.135-12.981-9.135-21.635 0-8.654 3.045-16.026 9.135-22.115 6.09-6.09 13.462-9.135 22.115-9.135z" fill="#54575F" opacity=".3"/></svg>