<svg width="24" height="24" fill="none" xmlns="http://www.w3.org/2000/svg"><path d="M13.708 0a19.978 19.978 0 015.327 6.646c1.301 2.602 1.952 5.398 1.952 8.387 0 2.461-.88 4.571-2.637 6.33C16.59 23.12 14.471 24 11.992 24s-4.597-.88-6.356-2.637C3.88 19.604 3 17.494 3 15.033c0-3.798 1.213-7.138 3.64-10.022l-.053.422c0 1.16.395 2.145 1.187 2.954C8.564 9.196 9.54 9.6 10.7 9.6c1.125 0 2.04-.404 2.743-1.213.703-.809 1.055-1.794 1.055-2.954 0-.738-.062-1.556-.185-2.453-.123-.896-.255-1.609-.395-2.136L13.708 0zM11.65 20.624c1.513 0 2.796-.527 3.851-1.582 1.055-1.055 1.583-2.321 1.583-3.798a14.92 14.92 0 00-.686-4.536c-1.055 1.441-2.778 2.409-5.17 2.9-1.02.212-1.802.625-2.347 1.24-.545.616-.817 1.363-.817 2.242 0 .985.351 1.82 1.055 2.506a3.498 3.498 0 002.531 1.028z" fill="#fff"/></svg>